<?xml version="1.0" encoding="UTF-8" standalone="no"?>
<!-- Uploaded to: SVG Repo, www.svgrepo.com, Generator: SVG Repo Mixer Tools -->

<svg
   width="800px"
   height="800px"
   viewBox="0 0 24 24"
   fill="none"
   version="1.1"
   id="svg1"
   sodipodi:docname="email-icon.svg"
   inkscape:version="1.3.2 (091e20e, 2023-11-25, custom)"
   xmlns:inkscape="http://www.inkscape.org/namespaces/inkscape"
   xmlns:sodipodi="http://sodipodi.sourceforge.net/DTD/sodipodi-0.dtd"
   xmlns="http://www.w3.org/2000/svg"
   xmlns:svg="http://www.w3.org/2000/svg">
  <defs
     id="defs1" />
  <sodipodi:namedview
     id="namedview1"
     pagecolor="#ffffff"
     bordercolor="#000000"
     borderopacity="0.25"
     inkscape:showpageshadow="2"
     inkscape:pageopacity="0.0"
     inkscape:pagecheckerboard="0"
     inkscape:deskcolor="#d1d1d1"
     inkscape:zoom="0.508125"
     inkscape:cx="116.11316"
     inkscape:cy="384.74785"
     inkscape:window-width="1920"
     inkscape:window-height="1009"
     inkscape:window-x="-8"
     inkscape:window-y="-8"
     inkscape:window-maximized="1"
     inkscape:current-layer="svg1" />
  <path
     fill-rule="evenodd"
     clip-rule="evenodd"
     d="M 23.94834,12 C 23.94834,18.598829 18.598829,23.94834 12,23.94834 5.4011114,23.94834 0.05166052,18.598829 0.05166052,12 0.05166052,5.4011114 5.4011114,0.05166052 12,0.05166052 18.598829,0.05166052 23.94834,5.4011114 23.94834,12 Z M 17.463378,8.8755092 c 0.306475,0.1881864 0.505415,0.5269218 0.505415,0.914048 l 0.0053,5.3767528 c 0,0.591443 -0.483907,1.07535 -1.07535,1.07535 H 8.2960147 c -0.5914428,0 -1.0753505,-0.483907 -1.0753505,-1.07535 V 9.7895572 c 0,-0.3871262 0.2043167,-0.7258616 0.5107915,-0.914048 L 12.597417,6.0258303 Z M 16.893442,9.794934 V 9.789554 L 12.597417,7.2732488 8.2960029,9.7895572 12.597417,12.477934 Z M 8.2960029,15.16631 v -4.118593 l 4.3014141,2.69913 4.296025,-2.683 0.0054,4.102463 z"
     fill="#000000"
     id="path1"
     style="stroke-width:1.19483" />
</svg>
